# xmcd
#
# Track frame offsets: 
#        150
#        12807
#        24545
#        37158
#        48415
#        60534
#        74105
#        88320
#        98386
#        112924
#        128326
#        143638
#
# Disc length: 2184 seconds
#
# Revision: 4
# Processed by: cddbd v1.5.2PL0 Copyright (c) Steve Scherf et al.
# Submitted via: ExactAudioCopyFreeDBPlugin 1.0
#
DISCID=9a08860c
DTITLE=Marvin Gaye - Moods Of Marvin Gaye_2016
DYEAR=1966
DGENRE=R&B
TTITLE0=I'll Be Doggone
TTITLE1=Little Darling_I Need You
TTITLE2=Take This Heart o Mine
TTITLE3=Hey Diddle Diddle
TTITLE4=One More Heartache
TTITLE5=Ain't That Peculiar
TTITLE6=Night Life
TTITLE7=U've Been A Long Time Comin
TTITLE8=Your Unchanging Love
TTITLE9=You're The One For Me
TTITLE10=I Worry 'Bout You
TTITLE11=One For My Baby
EXTD=
EXTT0=
EXTT1=
EXTT2=
EXTT3=
EXTT4=
EXTT5=
EXTT6=
EXTT7=
EXTT8=
EXTT9=
EXTT10=
EXTT11=
PLAYORDER=
